<svg width="22" height="19" viewBox="0 0 22 19" fill="none" xmlns="http://www.w3.org/2000/svg">
<g filter="url(#filter0_d_37_318)">
<path d="M20.7399 5.27246C20.5306 4.91498 20.0712 4.79482 19.7137 5.00407C19.3563 5.21332 19.2361 5.67274 19.4453 6.03021L20.7399 5.27246ZM20.0926 12.3487L19.4453 11.9698L20.0926 12.3487ZM9.16464 15.7776C8.77298 15.6427 8.34619 15.851 8.21137 16.2426C8.07656 16.6343 8.28478 17.0611 8.67645 17.1959L9.16464 15.7776ZM3.9074 12.3487L4.55466 11.9698L3.9074 12.3487ZM3.9074 5.65133L4.55466 6.03021L3.9074 5.65133ZM13.9162 6.96831C14.216 7.25418 14.6907 7.24293 14.9766 6.94318C15.2624 6.64343 15.2512 6.16869 14.9514 5.88282L13.9162 6.96831ZM8.7432 11.9157C9.01234 12.2305 9.48577 12.2676 9.80062 11.9985C10.1155 11.7293 10.1525 11.2559 9.8834 10.941L8.7432 11.9157ZM16.3067 9.0607C16.3067 8.64649 15.9709 8.3107 15.5567 8.3107C15.1425 8.3107 14.8067 8.64649 14.8067 9.0607H16.3067ZM11.9994 11.9233C11.5852 11.9233 11.2494 12.2591 11.2494 12.6733C11.2494 13.0875 11.5852 13.4233 11.9994 13.4233V11.9233ZM20.4095 1.52614C20.7001 1.23095 20.6963 0.756089 20.4011 0.465511C20.1059 0.174933 19.6311 0.178672 19.3405 0.473862L20.4095 1.52614ZM4.15301 15.9024C3.86243 16.1976 3.86617 16.6725 4.16136 16.9631C4.45655 17.2536 4.93141 17.2499 5.22199 16.9547L4.15301 15.9024ZM19.4453 6.03021C20.5182 7.8631 20.5182 10.1369 19.4453 11.9698L20.7399 12.7275C22.0867 10.4266 22.0867 7.57337 20.7399 5.27246L19.4453 6.03021ZM19.4453 11.9698C17.2217 15.7686 12.8404 17.0427 9.16464 15.7776L8.67645 17.1959C12.9744 18.6752 18.1274 17.1907 20.7399 12.7275L19.4453 11.9698ZM4.55466 11.9698C3.48178 10.1369 3.48178 7.8631 4.55466 6.03021L3.26013 5.27246C1.91329 7.57337 1.91329 10.4266 3.26013 12.7275L4.55466 11.9698ZM6.45255 14.2388C5.72734 13.6258 5.08181 12.8704 4.55466 11.9698L3.26013 12.7275C3.87315 13.7748 4.62893 14.6614 5.48415 15.3843L6.45255 14.2388ZM4.55466 6.03021C7.26824 1.3944 13.2017 0.519963 17.1232 3.42527L18.0162 2.22C13.4173 -1.18707 6.44922 -0.175702 3.26013 5.27246L4.55466 6.03021ZM9.19331 9.0607C9.19331 7.46701 10.4606 6.19699 11.9994 6.19699V4.69699C9.60973 4.69699 7.69331 6.66125 7.69331 9.0607H9.19331ZM11.9994 6.19699C12.7392 6.19699 13.4126 6.48802 13.9162 6.96831L14.9514 5.88282C14.1822 5.14925 13.1429 4.69699 11.9994 4.69699V6.19699ZM9.8834 10.941C9.45402 10.4387 9.19331 9.78247 9.19331 9.0607H7.69331C7.69331 10.1505 8.08864 11.15 8.7432 11.9157L9.8834 10.941ZM14.8067 9.0607C14.8067 10.6528 13.5387 11.9233 11.9994 11.9233V13.4233C14.3887 13.4233 16.3067 11.4595 16.3067 9.0607H14.8067ZM19.3405 0.473862L4.15301 15.9024L5.22199 16.9547L20.4095 1.52614L19.3405 0.473862Z" fill="#828282"/>
</g>
<defs>
<filter id="filter0_d_37_318" x="-1.75" y="0.25" width="27.5" height="25.4994" filterUnits="userSpaceOnUse" color-interpolation-filters="sRGB">
<feFlood flood-opacity="0" result="BackgroundImageFix"/>
<feColorMatrix in="SourceAlpha" type="matrix" values="0 0 0 0 0 0 0 0 0 0 0 0 0 0 0 0 0 0 127 0" result="hardAlpha"/>
<feOffset dy="4"/>
<feGaussianBlur stdDeviation="2"/>
<feComposite in2="hardAlpha" operator="out"/>
<feColorMatrix type="matrix" values="0 0 0 0 0 0 0 0 0 0 0 0 0 0 0 0 0 0 0.25 0"/>
<feBlend mode="normal" in2="BackgroundImageFix" result="effect1_dropShadow_37_318"/>
<feBlend mode="normal" in="SourceGraphic" in2="effect1_dropShadow_37_318" result="shape"/>
</filter>
</defs>
</svg>
